<svg width="28" height="20" viewBox="0 0 28 20" fill="none" xmlns="http://www.w3.org/2000/svg">
<path d="M0 7.5C0 3.375 3.375 0 7.5 0H8C9.125 0 10 0.875 10 2C10 3.125 9.125 4 8 4H7.5C5.5625 4 4 5.5625 4 7.5V8H8C10.1875 8 12 9.8125 12 12V16C12 18.1875 10.1875 20 8 20H4C1.8125 20 0 18.1875 0 16L0 7.5ZM16 7.5C16 3.375 19.375 0 23.5 0H24C25.125 0 26 0.875 26 2C26 3.125 25.125 4 24 4H23.5C21.5625 4 20 5.5625 20 7.5V8H24C26.1875 8 28 9.8125 28 12V16C28 18.1875 26.1875 20 24 20H20C17.8125 20 16 18.1875 16 16V7.5Z" fill="#D4315D"/>
</svg>
