<svg width="27" height="18" viewBox="0 0 27 18" fill="none" xmlns="http://www.w3.org/2000/svg">
<path d="M10.875 8.05525C12.9375 8.70166 13.9219 10.2928 13.9219 12.5304C13.9219 16.1105 11.0625 17.6519 8.0625 17.6519H0V0H7.82812C10.6875 0 13.125 0.895028 13.125 4.37569C13.125 6.16575 12.375 7.30939 10.875 8.05525ZM3.65625 3.03315V7.16022H7.35938C8.67188 7.16022 9.5625 6.56354 9.5625 5.0221C9.5625 3.43094 8.39062 3.03315 7.07812 3.03315H3.65625ZM7.54688 14.6685C9.04688 14.6685 10.2656 14.0718 10.2656 12.3315C10.2656 10.4917 9.23438 9.79558 7.64062 9.79558H3.65625V14.6685H7.54688ZM24.375 2.68508V0.944751H17.625V2.68508H24.375ZM27 11.4365C27 11.6851 27 11.884 26.9531 12.0829H18.2812C18.2812 14.1713 19.3125 15.3646 21.2344 15.3646C22.2656 15.3646 23.5312 14.768 23.8594 13.674H26.7656C25.875 16.6077 24 18 21.1406 18C17.3438 18 15 15.2652 15 11.2873C15 7.45856 17.4844 4.52486 21.1406 4.52486C24.9375 4.52486 27 7.65746 27 11.4365ZM18.2812 9.89503H23.6719C23.5312 8.20442 22.6875 7.16022 21.0469 7.16022C19.4531 7.16022 18.4219 8.20442 18.2812 9.89503Z" fill="#0E56FF"/>
</svg>
