<svg width="24" height="24" viewBox="0 0 24 24" fill="none" xmlns="http://www.w3.org/2000/svg">
<path d="M11.625 0C18.0469 0 23.25 5.20312 23.25 11.625C23.25 18.0469 18.0469 23.25 11.625 23.25C5.20312 23.25 0 18.0469 0 11.625C0 5.20312 5.20312 0 11.625 0ZM19.3125 5.34375V5.39062C19.125 5.67188 17.4375 7.78125 13.7812 9.28125C14.1094 9.98438 14.3906 10.5938 14.625 11.25C17.9531 10.8281 21.2344 11.4844 21.5625 11.5312C21.5156 9.1875 20.7188 7.03125 19.3125 5.34375ZM18.1875 4.21875H18.2344C15.75 2.0625 12.4688 1.21875 9.28125 1.96875C9.5625 2.34375 11.3906 4.82812 12.9844 7.78125C16.5469 6.46875 18.0469 4.45312 18.1875 4.21875ZM7.40625 2.67188C4.64062 3.98438 2.53125 6.51562 1.92188 9.60938C2.34375 9.60938 6.42188 9.60938 11.0625 8.39062C9.42188 5.48438 7.6875 3 7.40625 2.67188ZM1.6875 11.625C1.6875 14.2031 2.67188 16.5 4.26562 18.2812C5.85938 15.5156 9.14062 12.6094 12.7031 11.625C12.4688 11.0625 12.1875 10.5 11.9062 9.9375C6.9375 11.3906 2.15625 11.3438 1.6875 11.3438C1.6875 11.4375 1.6875 11.5312 1.6875 11.625ZM5.53125 19.4531C8.48438 21.75 12.3281 22.125 15.5156 20.7656C15.375 19.9219 14.7656 16.875 13.4062 13.2656C9.375 14.625 6.5625 17.3438 5.53125 19.4531ZM17.1562 19.875C19.4062 18.375 21 15.9844 21.4219 13.2188C21.0938 13.125 18.375 12.2812 15.2344 12.7969C16.5469 16.3594 17.0625 19.2656 17.1562 19.875Z" fill="#EA4C89"/>
</svg>
