<svg width="24" height="24" viewBox="0 0 24 24" fill="none" xmlns="http://www.w3.org/2000/svg">
<path d="M21.6338 1.10958V7.65966C21 7.33448 20.3239 7.14866 19.6056 7.1022V2.92131L15.5493 5.10466V7.98484C14.7887 8.44938 14.0704 9.05329 13.5211 9.79656V4.82594L8.11268 2.78194V16.7647L12.5493 18.3906C12.8451 19.2733 13.2676 20.1094 13.6479 20.8527C13.7324 20.9921 13.8169 21.1314 13.9014 21.2708L6.84507 18.6694L1.43662 21.4566C1.14085 21.596 0.760563 21.596 0.464789 21.3637C0.169014 21.1779 0 20.8063 0 20.4346V4.08267C0 3.66458 0.211268 3.24649 0.591549 3.06067L5.83099 0.366313C6.38028 0.087587 7.01408 0.0411325 7.60563 0.22695L14.9155 2.96776L20.1549 0.134041C20.493 -0.0517763 20.8732 -0.0517763 21.169 0.180496C21.4648 0.366313 21.6338 0.737949 21.6338 1.10958ZM6.08451 2.68903L2.02817 4.77948V18.6694L6.08451 16.5789V2.68903ZM13.8592 14.7672C13.8592 11.7476 16.1408 9.28556 18.9296 9.28556C21.7183 9.28556 24 11.7476 24 14.7672C24 17.9725 21.2958 21.7353 19.8592 23.5471C19.3521 24.151 18.507 24.151 18.0423 23.5471C16.5634 21.7353 13.8592 17.9725 13.8592 14.7672Z" fill="#D4315D"/>
</svg>
