<svg width="32" height="43" viewBox="0 0 32 43" fill="none" xmlns="http://www.w3.org/2000/svg">
<path d="M16 21.5C16 20.1297 16.5795 18.8156 17.6109 17.8466C18.6424 16.8777 20.0413 16.3333 21.5 16.3333C22.9587 16.3333 24.3576 16.8777 25.3891 17.8466C26.4205 18.8156 27 20.1297 27 21.5C27 22.8703 26.4205 24.1844 25.3891 25.1534C24.3576 26.1223 22.9587 26.6667 21.5 26.6667C20.0413 26.6667 18.6424 26.1223 17.6109 25.1534C16.5795 24.1844 16 22.8703 16 21.5Z" fill="#1ABCFE"/>
<path d="M5 31.8333C5 30.463 5.57946 29.1489 6.61091 28.1799C7.64236 27.211 9.04131 26.6667 10.5 26.6667H16V31.8333C16 33.2036 15.4205 34.5178 14.3891 35.4867C13.3576 36.4557 11.9587 37 10.5 37C9.04131 37 7.64236 36.4557 6.61091 35.4867C5.57946 34.5178 5 33.2036 5 31.8333Z" fill="#0ACF83"/>
<path d="M16 6V16.3333L21.5 16.3333C22.9587 16.3333 24.3576 15.789 25.3891 14.8201C26.4205 13.8511 27 12.537 27 11.1667C27 9.79638 26.4205 8.48222 25.3891 7.51328C24.3576 6.54434 22.9587 6 21.5 6H16Z" fill="#FF7262"/>
<path d="M5 11.1667C5 12.537 5.57946 13.8511 6.61091 14.8201C7.64236 15.789 9.04131 16.3333 10.5 16.3333H16V6H10.5C9.04131 6 7.64236 6.54434 6.61091 7.51328C5.57946 8.48222 5 9.79638 5 11.1667Z" fill="#F24E1E"/>
<path d="M5 21.5C5 22.8703 5.57946 24.1844 6.61091 25.1534C7.64236 26.1223 9.04131 26.6667 10.5 26.6667H16L16 16.3333H10.5C9.04131 16.3333 7.64236 16.8777 6.61091 17.8466C5.57946 18.8156 5 20.1297 5 21.5Z" fill="#A259FF"/>
</svg>
