<svg width="393" height="379" viewBox="0 0 393 379" fill="none" xmlns="http://www.w3.org/2000/svg">
<line x1="354.5" y1="392.021" x2="354.5" y2="9.15527e-05" stroke="#F2F2F2"/>
<line x1="274.5" y1="392.021" x2="274.5" y2="9.15527e-05" stroke="#F2F2F2"/>
<line x1="195.5" y1="392.021" x2="195.5" y2="9.15527e-05" stroke="#F2F2F2"/>
<line x1="61" y1="290.5" x2="392" y2="290.5" stroke="#F2F2F2"/>
<line y1="203.5" x2="392.02" y2="203.5" stroke="#F2F2F2"/>
<g filter="url(#filter0_f_149_264)">
<path fill-rule="evenodd" clip-rule="evenodd" d="M195.5 219C195.469 210.45 188.541 203.529 180 203.529C188.56 203.529 195.5 196.576 195.5 188C195.531 196.55 202.459 203.471 211 203.471C202.439 203.471 195.5 210.424 195.5 219Z" fill="#DA5E7F"/>
</g>
<g filter="url(#filter1_f_149_264)">
<path fill-rule="evenodd" clip-rule="evenodd" d="M274.5 306C274.469 297.45 267.541 290.529 259 290.529C267.56 290.529 274.5 283.576 274.5 275C274.531 283.55 281.459 290.471 290 290.471C281.439 290.471 274.5 297.424 274.5 306Z" fill="#DA5E7F"/>
</g>
<defs>
<filter id="filter0_f_149_264" x="176" y="184" width="39" height="39" filterUnits="userSpaceOnUse" color-interpolation-filters="sRGB">
<feFlood flood-opacity="0" result="BackgroundImageFix"/>
<feBlend mode="normal" in="SourceGraphic" in2="BackgroundImageFix" result="shape"/>
<feGaussianBlur stdDeviation="2" result="effect1_foregroundBlur_149_264"/>
</filter>
<filter id="filter1_f_149_264" x="255" y="271" width="39" height="39" filterUnits="userSpaceOnUse" color-interpolation-filters="sRGB">
<feFlood flood-opacity="0" result="BackgroundImageFix"/>
<feBlend mode="normal" in="SourceGraphic" in2="BackgroundImageFix" result="shape"/>
<feGaussianBlur stdDeviation="2" result="effect1_foregroundBlur_149_264"/>
</filter>
</defs>
</svg>
