<svg width="24" height="24" viewBox="0 0 24 24" fill="none" xmlns="http://www.w3.org/2000/svg">
<path d="M5.35714 24H0.375V7.98214H5.35714V24ZM2.89286 5.78571C1.28571 5.78571 0 4.5 0 2.89286C0 2.14286 0.321429 1.39286 0.857143 0.857143C1.39286 0.321429 2.14286 0 2.89286 0C3.64286 0 4.39286 0.321429 4.92857 0.857143C5.46429 1.39286 5.78571 2.14286 5.78571 2.89286C5.78571 4.5 4.5 5.78571 2.89286 5.78571ZM24 24H19.0179V16.1786C19.0179 14.3571 19.0179 11.9464 16.4464 11.9464C13.875 11.9464 13.4464 13.9821 13.4464 16.0714V24H8.46429V7.98214H13.2857V10.1786H13.3393C13.9821 8.89286 15.6429 7.55357 18.0536 7.55357C23.0893 7.55357 24 10.875 24 15.2143V24Z" fill="#1265BF"/>
</svg>
