<svg width="11" height="15" viewBox="0 0 11 15" fill="none" xmlns="http://www.w3.org/2000/svg">
<path d="M5.5 0.25C8.40441 0.25 10.75 2.65279 10.75 5.64062C10.7499 7.32902 9.93853 9.15867 8.98828 10.7295C8.27229 11.913 7.46505 12.9697 6.8291 13.7363L6.25977 14.4004C5.87352 14.8371 5.23775 14.8646 4.82031 14.4824L4.74023 14.4004C4.08376 13.6599 2.96645 12.3077 2.01172 10.7295C1.06147 9.15867 0.250085 7.32902 0.25 5.64062C0.25 2.65279 2.59559 0.25 5.5 0.25ZM5.5 4.23145C4.73682 4.23145 4.08315 4.89761 4.08301 5.72168C4.08301 6.54587 4.73674 7.21289 5.5 7.21289C6.26326 7.21289 6.91699 6.54587 6.91699 5.72168C6.91685 4.89761 6.26318 4.23145 5.5 4.23145Z" fill="#EC0B46" stroke="#CA3856" stroke-width="0.5"/>
</svg>
