<svg width="32" height="32" viewBox="0 0 32 32" fill="none" xmlns="http://www.w3.org/2000/svg">
<path d="M6.56641 6.60938C7.44531 7.3125 7.73828 7.25391 9.4375 7.19531L24.9062 6.25781C25.1992 6.25781 24.9648 5.90625 24.8477 5.84766L22.2695 3.97266C21.8008 3.62109 21.0977 3.15234 19.8672 3.26953L4.86719 4.38281C4.33984 4.44141 4.22266 4.73438 4.39844 4.91016L6.56641 6.60938ZM7.50391 10.2422V26.5312C7.50391 27.4102 7.91406 27.7031 8.91016 27.7031L25.9609 26.707C26.8984 26.6484 27.0156 26.0625 27.0156 25.3008V9.12891C27.0156 8.42578 26.7812 8.07422 26.1367 8.13281L8.38281 9.12891C7.73828 9.1875 7.50391 9.53906 7.50391 10.2422ZM24.3203 11.1211C24.3789 11.5898 24.3203 12.1172 23.793 12.1758L22.9727 12.293V24.3633C22.2695 24.7148 21.625 24.9492 21.0391 24.9492C20.1602 24.9492 19.9844 24.6562 19.3398 23.8359L13.9492 15.457V23.6016L15.6484 23.9531C15.6484 23.9531 15.6484 24.9492 14.3008 24.9492L10.4922 25.1836C10.375 24.9492 10.4922 24.3633 10.9023 24.3047L11.8984 24.0117V13.2305L10.4922 13.1133C10.375 12.6445 10.668 11.9414 11.4297 11.8828L15.4727 11.5898L21.0977 20.1445V12.5859L19.6328 12.4102C19.5156 11.8242 19.9844 11.3555 20.5117 11.2969L24.3203 11.1211ZM3.57812 2.91797L19.2227 1.74609C21.0977 1.57031 21.625 1.6875 22.7969 2.56641L27.7773 6.08203C28.5977 6.66797 28.8906 6.84375 28.8906 7.48828V26.707C28.8906 27.8789 28.4219 28.582 26.8984 28.6992L8.79297 29.8125C7.67969 29.8711 7.09375 29.6953 6.50781 28.9336L2.81641 24.1875C2.17188 23.3086 1.9375 22.6641 1.9375 21.9023V4.79297C1.9375 3.85547 2.34766 3.03516 3.57812 2.91797Z" fill="black"/>
</svg>
