<svg width="24" height="24" viewBox="0 0 24 24" fill="none" xmlns="http://www.w3.org/2000/svg">
<path d="M24 12C24 12.0469 24 12.0938 24 12.1406C24 13.8281 22.4062 15 20.7188 15H16.125C14.9063 15 13.875 16.0312 13.875 17.25C13.875 17.3906 13.875 17.5781 13.9219 17.7188C14.0156 18.1875 14.25 18.6562 14.4375 19.125C14.7188 19.7812 15 20.3906 15 21.0938C15 22.5938 13.9688 23.9531 12.5156 24C12.3281 24 12.1875 24 12 24C5.39062 24 0 18.6094 0 12C0 5.39062 5.39062 0 12 0C18.6094 0 24 5.39062 24 12ZM6 13.5C6 12.6563 5.34375 12 4.5 12C3.65625 12 3 12.6563 3 13.5C3 14.3438 3.65625 15 4.5 15C5.34375 15 6 14.3438 6 13.5ZM6 9C6.84375 9 7.5 8.34375 7.5 7.5C7.5 6.65625 6.84375 6 6 6C5.15625 6 4.5 6.65625 4.5 7.5C4.5 8.34375 5.15625 9 6 9ZM13.5 4.5C13.5 3.65625 12.8438 3 12 3C11.1562 3 10.5 3.65625 10.5 4.5C10.5 5.34375 11.1562 6 12 6C12.8438 6 13.5 5.34375 13.5 4.5ZM18 9C18.8438 9 19.5 8.34375 19.5 7.5C19.5 6.65625 18.8438 6 18 6C17.1562 6 16.5 6.65625 16.5 7.5C16.5 8.34375 17.1562 9 18 9Z" fill="#D4315D"/>
</svg>
