<svg width="24" height="21" viewBox="0 0 24 21" fill="none" xmlns="http://www.w3.org/2000/svg">
<path d="M6.98438 1.54688C7.3125 0.609375 8.15625 0 9.14062 0H14.8594C15.8438 0 16.6875 0.609375 17.0156 1.54688L17.4844 3H21C22.6406 3 24 4.35938 24 6V18C24 19.6406 22.6406 21 21 21H3C1.35938 21 0 19.6406 0 18V6C0 4.35938 1.35938 3 3 3H6.51563L6.98438 1.54688ZM12 7.5C9.51562 7.5 7.5 9.51562 7.5 12C7.5 14.4844 9.51562 16.5 12 16.5C14.4844 16.5 16.5 14.4844 16.5 12C16.5 9.51562 14.4844 7.5 12 7.5Z" fill="#D4315D"/>
</svg>
