<svg width="24" height="23" viewBox="0 0 24 23" fill="none" xmlns="http://www.w3.org/2000/svg">
<path d="M6.42188 0.43125C7.03125 -0.14375 7.96875 -0.14375 8.57812 0.43125L12 3.97708L15.4219 0.43125C16.0312 -0.14375 16.9688 -0.14375 17.5781 0.43125C18.1406 1.05417 18.1406 2.0125 17.5781 2.63542L15.6094 4.6H21C22.6406 4.6 24 5.98958 24 7.66667V19.9333C24 21.6104 22.6406 23 21 23H3C1.35938 23 0 21.6104 0 19.9333V7.66667C0 5.98958 1.35938 4.6 3 4.6H8.39062L6.42188 2.63542C5.85938 2.0125 5.85938 1.05417 6.42188 0.43125ZM5.25 7.66667C4.03125 7.66667 3 8.72083 3 9.96667V17.6333C3 18.9271 4.03125 19.9333 5.25 19.9333H15.75C17.0156 19.9333 18 18.9271 18 17.6333V9.96667C18 8.72083 17.0156 7.66667 15.75 7.66667H5.25ZM22.125 11.1167C22.125 10.4938 21.6094 9.96667 21 9.96667C20.3906 9.96667 19.875 10.4938 19.875 11.1167C19.875 11.7396 20.3906 12.2667 21 12.2667C21.6094 12.2667 22.125 11.7396 22.125 11.1167ZM21 16.1C21.6094 16.1 22.125 15.5729 22.125 14.95C22.125 14.3271 21.6094 13.8 21 13.8C20.3906 13.8 19.875 14.3271 19.875 14.95C19.875 15.5729 20.3906 16.1 21 16.1Z" fill="#D4315D"/>
</svg>
