<svg width="28" height="20" viewBox="0 0 28 20" fill="none" xmlns="http://www.w3.org/2000/svg">
<path d="M13.75 7.5625C15.2539 7.5625 16.5 6.31641 16.5 4.8125C16.5 3.30859 15.2539 2.0625 13.75 2.0625C12.2461 2.0625 11 3.30859 11 4.8125C11 6.31641 12.2461 7.5625 13.75 7.5625ZM13.75 0C16.4141 0 18.5625 2.14844 18.5625 4.8125C18.5625 7.47656 16.4141 9.625 13.75 9.625C11.0859 9.625 8.9375 7.47656 8.9375 4.8125C8.9375 2.14844 11.0859 0 13.75 0ZM12.7188 13.75C10.2695 13.75 8.25 15.7695 8.25 18.2188V18.9062C8.25 19.4648 7.77734 19.9375 7.21875 19.9375C6.66016 19.9375 6.1875 19.4648 6.1875 18.9062V18.2188C6.1875 14.6094 9.10938 11.6875 12.7188 11.6875H14.7812C18.3906 11.6875 21.3125 14.6094 21.3125 18.2188V18.9062C21.3125 19.4648 20.8398 19.9375 20.2812 19.9375C19.7227 19.9375 19.25 19.4648 19.25 18.9062V18.2188C19.25 15.7695 17.2305 13.75 14.7812 13.75H12.7188ZM18.5195 9.75391C19.0352 9.28125 19.4648 8.67969 19.8086 8.07812C20.0664 8.20703 20.3242 8.25 20.625 8.25C21.7852 8.25 22.6875 7.34766 22.6875 6.1875C22.6875 5.07031 21.7852 4.125 20.625 4.125H20.582C20.5391 3.39453 20.3242 2.75 20.0664 2.10547C20.2383 2.0625 20.4531 2.0625 20.625 2.0625C22.9023 2.0625 24.75 3.91016 24.75 6.1875C24.75 8.46484 22.9023 10.3125 20.625 10.3125C19.8516 10.3125 19.1641 10.0977 18.5195 9.75391ZM6.875 2.0625C7.04688 2.0625 7.26172 2.0625 7.43359 2.10547C7.17578 2.75 6.96094 3.4375 6.91797 4.125H6.875C5.75781 4.125 4.8125 5.07031 4.8125 6.1875C4.8125 7.34766 5.75781 8.25 6.875 8.25C7.17578 8.25 7.43359 8.20703 7.69141 8.07812C8.03516 8.67969 8.46484 9.28125 8.98047 9.75391C8.33594 10.0977 7.64844 10.3125 6.875 10.3125C4.59766 10.3125 2.75 8.46484 2.75 6.1875C2.75 3.91016 4.59766 2.0625 6.875 2.0625ZM6.40234 12.375C5.75781 13.0625 5.24219 13.8789 4.85547 14.7812C3.22266 15.4258 2.0625 17.0156 2.0625 18.9062C2.0625 19.4648 1.58984 19.9375 1.03125 19.9375C0.472656 19.9375 0 19.4648 0 18.9062C0 15.3398 2.87891 12.418 6.40234 12.375ZM22.6445 14.7812C22.2578 13.8789 21.7422 13.0625 21.0977 12.375C24.6211 12.418 27.5 15.3398 27.5 18.9062C27.5 19.4648 27.0273 19.9375 26.4688 19.9375C25.9102 19.9375 25.4375 19.4648 25.4375 18.9062C25.4375 17.0156 24.2773 15.4258 22.6445 14.7812Z" fill="#D4315D"/>
</svg>
