<svg width="20" height="22" viewBox="0 0 20 22" fill="none" xmlns="http://www.w3.org/2000/svg">
<path d="M6.1875 5.5C6.1875 7.39062 7.73438 8.9375 9.625 8.9375C11.5156 8.9375 13.0625 7.39062 13.0625 5.5C13.0625 3.60938 11.5156 2.0625 9.625 2.0625C7.73438 2.0625 6.1875 3.60938 6.1875 5.5ZM15.125 5.5C15.125 8.55078 12.6758 11 9.625 11C6.57422 11 4.125 8.55078 4.125 5.5C4.125 2.44922 6.57422 0 9.625 0C12.6758 0 15.125 2.44922 15.125 5.5ZM2.0625 20.625V20.9688C2.0625 21.5273 1.58984 22 1.03125 22C0.472656 22 0 21.5273 0 20.9688V20.625C0 16.457 3.39453 13.0625 7.5625 13.0625H11.6875C15.8555 13.0625 19.25 16.457 19.25 20.625V20.9688C19.25 21.5273 18.7773 22 18.2188 22C17.6602 22 17.1875 21.5273 17.1875 20.9688V20.625C17.1875 17.5742 14.7383 15.125 11.6875 15.125H7.5625C4.51172 15.125 2.0625 17.5742 2.0625 20.625Z" fill="#D4315D"/>
</svg>
