<svg width="24" height="24" viewBox="0 0 24 24" fill="none" xmlns="http://www.w3.org/2000/svg">
<path d="M2.39796 3.5674V21.602H20.4326L16.2861 17.4056L14.4377 19.254C13.9881 19.7037 13.1888 19.7037 12.7392 19.254C12.2895 18.8044 12.2895 18.0051 12.7392 17.5555L14.5876 15.7071L12.2895 13.409L11.6401 14.0585C11.1905 14.5081 10.3912 14.5081 9.94154 14.0585C9.49192 13.6088 9.49192 12.8095 9.94154 12.3599L10.591 11.7105L8.29294 9.41242L6.44451 11.2608C5.9949 11.7105 5.19558 11.7105 4.74596 11.2608C4.29634 10.8112 4.29634 10.0119 4.74596 9.56229L6.59439 7.71387L2.39796 3.5674ZM2.74766 0.470033L23.53 21.2523C23.9796 21.7519 24.1295 22.4014 23.8797 23.0009C23.6299 23.6003 23.0304 24 22.3809 24H1.59864C0.699405 24 0 23.3006 0 22.4014V1.61906C0 0.969608 0.39966 0.370118 0.999149 0.120331C1.59864 -0.129456 2.29804 0.0204161 2.74766 0.470033ZM6.79422 13.6088L10.3912 17.2058C10.541 17.3557 10.4411 17.6054 10.2413 17.6054H6.79422C6.59439 17.6054 6.39456 17.4056 6.39456 17.2058V13.7587C6.39456 13.5589 6.64434 13.459 6.79422 13.6088Z" fill="#D4315D"/>
</svg>
