<svg width="24" height="24" viewBox="0 0 24 24" fill="none" xmlns="http://www.w3.org/2000/svg">
<path d="M17.0953 0.773438C18.0797 -0.257812 19.7672 -0.257812 20.7984 0.773438L22.9547 2.92969C23.9859 3.96094 23.9859 5.64844 22.9547 6.67969L19.6266 10.0078L19.1109 10.4766L17.2359 17.4609C17.0016 18.3047 16.3922 18.9609 15.5484 19.2422L3.17344 23.6016C2.32969 23.9297 1.34531 23.6953 0.689062 23.0391C0.0328125 22.3828 -0.154687 21.4453 0.126563 20.5547L4.48594 8.17969C4.76719 7.38281 5.42344 6.72656 6.26719 6.49219L13.2516 4.61719L13.7203 4.10156L17.0484 0.773438H17.0953ZM13.7203 6.82031L6.87656 8.69531C6.73594 8.69531 6.64219 8.78906 6.59531 8.92969L2.89219 19.5234L7.43906 14.9766C7.34531 14.7422 7.29844 14.4609 7.29844 14.1797C7.29844 12.9609 8.32969 11.9297 9.54844 11.9297C10.8141 11.9297 11.7984 12.9609 11.7984 14.1797C11.7984 15.4453 10.8141 16.4297 9.54844 16.4297C9.26719 16.4297 9.03281 16.3828 8.75156 16.2891L4.20469 20.8828L14.7984 17.1328C14.9391 17.0859 15.0328 16.9922 15.0328 16.8984L16.9078 10.0078L13.7203 6.82031Z" fill="#D4315D"/>
</svg>
