<svg width="24" height="24" viewBox="0 0 24 24" fill="none" xmlns="http://www.w3.org/2000/svg">
<path d="M16.1719 6.23438L13.5938 8.8125C12.7031 9.70312 11.2969 9.70312 10.4062 8.8125L7.82812 6.23438C6.9375 5.34375 6.9375 3.9375 7.82812 3.04688L10.0781 0.796875C10.5938 0.28125 11.2969 0 12 0C12.7031 0 13.4062 0.28125 13.9219 0.796875L16.1719 3.04688C17.0625 3.9375 17.0625 5.34375 16.1719 6.23438ZM11.6719 2.39062L9.42188 4.64062L12 7.21875L14.5781 4.64062L12.3281 2.39062C12.2344 2.29688 12.1406 2.25 12 2.25C11.8594 2.25 11.7656 2.29688 11.6719 2.39062ZM6.23438 7.82812L8.8125 10.4062C9.70312 11.2969 9.70312 12.7031 8.8125 13.5938L6.23438 16.1719C5.34375 17.0625 3.9375 17.0625 3.04688 16.1719L0.796875 13.9219C0.28125 13.4062 0 12.7031 0 12C0 11.2969 0.28125 10.5938 0.796875 10.0781L3.04688 7.82812C3.9375 6.9375 5.34375 6.9375 6.23438 7.82812ZM2.39062 11.6719C2.29688 11.7656 2.25 11.8594 2.25 12C2.25 12.1406 2.29688 12.2344 2.39062 12.3281L4.64062 14.5781L7.21875 12L4.64062 9.42188L2.39062 11.6719ZM9.42188 19.3594L11.6719 21.6094C11.7656 21.7031 11.8594 21.75 12 21.75C12.1406 21.75 12.2344 21.7031 12.3281 21.6094L14.5781 19.3594L12 16.7812L9.42188 19.3594ZM13.5938 15.1875L16.1719 17.7656C17.0625 18.6562 17.0625 20.0625 16.1719 20.9531L13.9219 23.2031C13.4062 23.7188 12.7031 24 12 24C11.2969 24 10.5938 23.7188 10.0781 23.2031L7.82812 20.9531C6.9375 20.0625 6.9375 18.6562 7.82812 17.7656L10.4062 15.1875C11.2969 14.2969 12.7031 14.2969 13.5938 15.1875ZM20.9531 7.82812L23.2031 10.0781C23.7188 10.5938 24 11.2969 24 12C24 12.7031 23.7188 13.4062 23.2031 13.9219L20.9531 16.1719C20.0625 17.0625 18.6562 17.0625 17.7656 16.1719L15.1875 13.5938C14.2969 12.7031 14.2969 11.2969 15.1875 10.4062L17.7656 7.82812C18.6562 6.9375 20.0625 6.9375 20.9531 7.82812ZM21.6094 11.6719L19.3594 9.42188L16.7812 12L19.3594 14.5781L21.6094 12.3281C21.7031 12.2344 21.75 12.1406 21.75 12C21.75 11.8594 21.7031 11.7656 21.6094 11.6719Z" fill="#D4315D"/>
</svg>
