<svg width="25" height="24" viewBox="0 0 25 24" fill="none" xmlns="http://www.w3.org/2000/svg">
<path d="M8.58606 0.984375C9.28919 0.375 10.2267 0 11.1642 0H11.2111C13.3204 0 15.0079 1.6875 15.0079 3.79688C15.0079 4.78125 14.6329 5.76562 13.8829 6.46875L4.22669 16.125C3.89856 16.4531 3.75794 16.8281 3.75794 17.2031C3.75794 18.0469 4.46106 18.75 5.30481 18.75C5.67981 18.75 6.10169 18.6094 6.38294 18.3281L17.5861 7.125C18.2892 6.42188 19.2267 6 20.2579 6C22.3204 6 24.0079 7.6875 24.0079 9.79688C24.0079 10.7812 23.6329 11.7656 22.9298 12.4688L18.0079 17.3438C17.5392 17.8125 17.2579 18.4688 17.2579 19.1719C17.2579 20.5781 18.4298 21.75 19.8361 21.75H20.0704C20.3048 21.75 20.5861 21.7031 20.8204 21.6094L22.5079 21.0469C23.1173 20.8594 23.7736 21.1875 23.9611 21.75C24.1486 22.3594 23.8204 23.0156 23.2579 23.2031L21.5236 23.7656C21.0548 23.9062 20.5392 24 20.0704 24H19.8361C17.1642 24 15.0079 21.8438 15.0079 19.1719C15.0079 17.9062 15.5236 16.6406 16.4142 15.75L21.3361 10.875C21.6173 10.5938 21.7579 10.1719 21.7579 9.79688C21.7579 8.95312 21.0548 8.25 20.2111 8.25C19.8361 8.25 19.4611 8.39062 19.1329 8.71875L7.97669 19.875C7.22669 20.625 6.28919 21 5.30481 21C3.19544 21 1.50794 19.3125 1.50794 17.2031C1.50794 16.2188 1.88294 15.2812 2.63294 14.5312L12.3361 4.875C12.6173 4.59375 12.7579 4.17188 12.7579 3.79688C12.7579 2.95312 12.0548 2.25 11.2111 2.25H11.1642C10.7892 2.25 10.4142 2.39062 10.1329 2.67188L1.88294 10.2188C1.41419 10.6406 0.711063 10.5938 0.289188 10.125C-0.132687 9.65625 -0.0858119 8.95312 0.382938 8.53125L8.58606 0.984375Z" fill="#D4315D"/>
</svg>
