<svg width="25" height="19" viewBox="0 0 25 19" fill="none" xmlns="http://www.w3.org/2000/svg">
<path d="M2.21102 5.92013C1.94816 4.93911 2.55583 3.8866 3.53685 3.62373C4.5556 3.35076 5.57038 3.96854 5.83324 4.94956L6.96558 9.17548L16.6248 6.58729L15.4925 2.36137C15.2296 1.38035 15.8373 0.327834 16.8183 0.0649709C17.8371 -0.208002 18.8519 0.409778 19.1147 1.3908L19.2765 1.9945L19.8802 1.83274C20.8989 1.55976 21.9137 2.17754 22.1766 3.15856L22.6619 4.96967C23.341 4.78769 24.0108 5.17439 24.1928 5.85356C24.3748 6.53272 23.9881 7.20251 23.3089 7.38449L23.7942 9.1956C24.0672 10.2143 23.4871 11.219 22.4684 11.492L21.8647 11.6538L22.0264 12.2575C22.2994 13.2762 21.7194 14.2809 20.7006 14.5539C19.7196 14.8167 18.6772 14.2468 18.4042 13.228L17.2719 9.00211L7.61263 11.5903L8.74496 15.8162C9.01793 16.835 8.43788 17.8396 7.41913 18.1126C6.43812 18.3755 5.39571 17.8055 5.12274 16.7868L4.96098 16.1831L4.35727 16.3449C3.37625 16.6077 2.33385 16.0378 2.06088 15.019L1.57559 13.2079C0.896423 13.3899 0.226641 13.0032 0.0446585 12.324C-0.137324 11.6449 0.249375 10.9751 0.928542 10.7931L0.443256 8.98199C0.180393 8.00097 0.788063 6.94846 1.76908 6.68559L2.37279 6.52383L2.21102 5.92013Z" fill="#D4315D"/>
</svg>
