<svg width="25" height="21" viewBox="0 0 25 21" fill="none" xmlns="http://www.w3.org/2000/svg">
<path d="M21.655 4.23238C22.9183 3.89389 24.2128 4.65 24.5547 5.92606C24.8966 7.20212 24.1536 8.50417 22.8903 8.84266L17.715 10.2294L13.1549 19.1279C12.9358 19.4513 12.654 19.7033 12.2872 19.8016L10.4942 20.282C10.0459 20.4021 9.63937 20.0258 9.65132 19.5814L10.054 12.2821L6.01973 13.3631L4.58792 16.6586C4.50979 16.856 4.3281 16.9929 4.12435 17.0475L3.3501 17.255C2.90184 17.3751 2.50629 17.0399 2.4775 16.6064L2.38655 11.866L0.0950953 7.71518C-0.137452 7.3363 0.0782535 6.83732 0.526506 6.71721L1.30076 6.50975C1.50451 6.45515 1.73032 6.48288 1.89669 6.61478L4.78441 8.75284L8.81868 7.67186L4.82034 1.55189C4.58779 1.17301 4.75172 0.643786 5.19997 0.523677L6.99298 0.0432415C7.35973 -0.0550296 7.72985 0.0222714 8.08128 0.192818L16.4797 5.61909L21.655 4.23238Z" fill="#D4315D"/>
</svg>
